HIERARCHY
ROOT hip
{
  OFFSET 0 0 0
  CHANNELS 6 Xposition Yposition Zposition Zrotation Yrotation Xrotation
  JOINT abdomen
  {
    OFFSET 0 20.6881 -0.73152
    CHANNELS 3 Zrotation Xrotation Yrotation
    JOINT chest
    {
      OFFSET 0 11.7043 -0.48768
      CHANNELS 3 Zrotation Xrotation Yrotation
      JOINT neck
      {
        OFFSET 0 22.1894 -2.19456
        CHANNELS 3 Zrotation Xrotation Yrotation
        JOINT head
        {
          OFFSET -0.24384 7.07133 1.2192
          CHANNELS 3 Zrotation Xrotation Yrotation
          JOINT leftEye
          {
            OFFSET 4.14528 8.04674 8.04672
            CHANNELS 3 Zrotation Xrotation Yrotation
            End Site
            {
              OFFSET 1 0 0
            }
          }
          JOINT rightEye
          {
            OFFSET -3.6576 8.04674 8.04672
            CHANNELS 3 Zrotation Xrotation Yrotation
            End Site
            {
              OFFSET 1 0 0
            }
          }
        }
      }
      JOINT rCollar
      {
        OFFSET -2.68224 19.2634 -4.8768
        CHANNELS 3 Zrotation Xrotation Yrotation
        JOINT rShldr
        {
          OFFSET -8.77824 -1.95073 1.46304
          CHANNELS 3 Zrotation Xrotation Yrotation
          JOINT rForeArm
          {
            OFFSET -28.1742 -1.7115 0.48768
            CHANNELS 3 Zrotation Xrotation Yrotation
            JOINT rHand
            {
              OFFSET -22.5879 0.773209 7.07136
              CHANNELS 3 Zrotation Xrotation Yrotation
              JOINT rThumb1
              {
                OFFSET -1.2192 -0.487915 3.41376
                CHANNELS 3 Zrotation Xrotation Yrotation
                JOINT rThumb2
                {
                  OFFSET -3.37035 -0.52449 3.41376
                  CHANNELS 3 Zrotation Xrotation Yrotation
                  End Site
                  {
                    OFFSET -1.78271 -1.18214 1.43049
                  }
                }
              }
              JOINT rIndex1
              {
                OFFSET -7.75947 0.938293 5.60832
                CHANNELS 3 Zrotation Xrotation Yrotation
                JOINT rIndex2
                {
                  OFFSET -2.54057 -0.884171 1.56538
                  CHANNELS 3 Zrotation Xrotation Yrotation
                  End Site
                  {
                    OFFSET -1.62519 -0.234802 1.16502
                  }
                }
              }
              JOINT rMid1
              {
                OFFSET -8.24714 1.18213 3.41376
                CHANNELS 3 Zrotation Xrotation Yrotation
                JOINT rMid2
                {
                  OFFSET -3.10165 -0.590103 1.0647
                  CHANNELS 3 Zrotation Xrotation Yrotation
                  End Site
                  {
                    OFFSET -2.48547 -0.328903 0.83742
                  }
                }
              }
              JOINT rRing1
              {
                OFFSET -8.82822 0.546677 1.51678
                CHANNELS 3 Zrotation Xrotation Yrotation
                JOINT rRing2
                {
                  OFFSET -2.60934 -0.819778 -0.0198488
                  CHANNELS 3 Zrotation Xrotation Yrotation
                  End Site
                  {
                    OFFSET -2.33842 -0.294052 0.168128
                  }
                }
              }
              JOINT rPinky1
              {
                OFFSET -8.27202 -0.0477905 -0.4584
                CHANNELS 3 Zrotation Xrotation Yrotation
                JOINT rPinky2
                {
                  OFFSET -1.82734 -0.647385 -0.700984
                  CHANNELS 3 Zrotation Xrotation Yrotation
                  End Site
                  {
                    OFFSET -1.69225 -0.51767 -0.607171
                  }
                }
              }
            }
          }
        }
      }
      JOINT lCollar
      {
        OFFSET 2.68224 19.2634 -4.8768
        CHANNELS 3 Zrotation Xrotation Yrotation
        JOINT lShldr
        {
          OFFSET 8.77824 -1.95073 1.46304
          CHANNELS 3 Zrotation Xrotation Yrotation
          JOINT lForeArm
          {
            OFFSET 28.1742 -1.7115 0.48768
            CHANNELS 3 Zrotation Xrotation Yrotation
            JOINT lHand
            {
              OFFSET 22.5879 0.773209 7.07136
              CHANNELS 3 Zrotation Xrotation Yrotation
              JOINT lThumb1
              {
                OFFSET 1.2192 -0.487915 3.41376
                CHANNELS 3 Zrotation Xrotation Yrotation
                JOINT lThumb2
                {
                  OFFSET 3.37035 -0.52449 3.41376
                  CHANNELS 3 Zrotation Xrotation Yrotation
                  End Site
                  {
                    OFFSET 1.78271 -1.18214 1.43049
                  }
                }
              }
              JOINT lIndex1
              {
                OFFSET 7.75947 0.938293 5.60832
                CHANNELS 3 Zrotation Xrotation Yrotation
                JOINT lIndex2
                {
                  OFFSET 2.54057 -0.884171 1.56538
                  CHANNELS 3 Zrotation Xrotation Yrotation
                  End Site
                  {
                    OFFSET 1.62519 -0.234802 1.16502
                  }
                }
              }
              JOINT lMid1
              {
                OFFSET 8.24714 1.18213 3.41376
                CHANNELS 3 Zrotation Xrotation Yrotation
                JOINT lMid2
                {
                  OFFSET 3.10165 -0.590103 1.0647
                  CHANNELS 3 Zrotation Xrotation Yrotation
                  End Site
                  {
                    OFFSET 2.48547 -0.328903 0.83742
                  }
                }
              }
              JOINT lRing1
              {
                OFFSET 8.82822 0.546677 1.51678
                CHANNELS 3 Zrotation Xrotation Yrotation
                JOINT lRing2
                {
                  OFFSET 2.60934 -0.819778 -0.0198488
                  CHANNELS 3 Zrotation Xrotation Yrotation
                  End Site
                  {
                    OFFSET 2.33842 -0.294052 0.168128
                  }
                }
              }
              JOINT lPinky1
              {
                OFFSET 8.27202 -0.0477905 -0.4584
                CHANNELS 3 Zrotation Xrotation Yrotation
                JOINT lPinky2
                {
                  OFFSET 1.82734 -0.647385 -0.700984
                  CHANNELS 3 Zrotation Xrotation Yrotation
                  End Site
                  {
                    OFFSET 1.69225 -0.51767 -0.607171
                  }
                }
              }
            }
          }
        }
      }
    }
  }
  JOINT rButtock
  {
    OFFSET -8.77824 4.35084 1.2192
    CHANNELS 3 Zrotation Xrotation Yrotation
    JOINT rThigh
    {
      OFFSET 0 -1.70687 -2.19456
      CHANNELS 3 Zrotation Xrotation Yrotation
      JOINT rShin
      {
        OFFSET 0 -36.8199 0.73152
        CHANNELS 3 Zrotation Xrotation Yrotation
        JOINT rFoot
        {
          OFFSET 0.73152 -45.1104 -5.12064
          CHANNELS 3 Zrotation Xrotation Yrotation
          End Site
          {
            OFFSET -1.1221 -3.69964 12.103
          }
        }
      }
    }
  }
  JOINT lButtock
  {
    OFFSET 8.77824 4.35084 1.2192
    CHANNELS 3 Zrotation Xrotation Yrotation
    JOINT lThigh
    {
      OFFSET 0 -1.70687 -2.19456
      CHANNELS 3 Zrotation Xrotation Yrotation
      JOINT lShin
      {
        OFFSET 0 -36.8199 0.73152
        CHANNELS 3 Zrotation Xrotation Yrotation
        JOINT lFoot
        {
          OFFSET -0.73152 -45.1104 -5.12064
          CHANNELS 3 Zrotation Xrotation Yrotation
          End Site
          {
            OFFSET 1.1221 -3.69964 12.103
          }
        }
      }
    }
  }
}
MOTION
Frames:	5
Frame Time:	0.00833333
-20.421 82.4789 81.8983 -177.89 58.2304 -174.636 -1.44725 5.04399 -1.61758 -2.32858 -1.58977 -0.707229 3.15181 15.2389 1.32116 -1.51912 -26.2485 2.27913 -0.0 0.0 0.0 -0.0 0.0 0.0 1.30161e-14 1.47801e-13 2.06261e-13 86.6834 13.5572 -0.995611 -8.23351 -3.13655 14.5281 -0.422453 18.1623 2.64257 -2.15715e-09 1.04014e-09 5.48241e-10 -3.715e-09 1.80481e-09 9.80989e-10 -2.15714e-09 1.04014e-09 5.4823e-10 7.73091 5.47488 0.417314 -2.15715e-09 1.04014e-09 5.48241e-10 2.90554 0.965183 0.102902 -2.15713e-09 1.04014e-09 5.48235e-10 10.2786 0.731801 0.0259123 -2.15715e-09 1.04014e-09 5.4825e-10 2.22167 -0.733487 -0.20892 1.29448e-14 1.47791e-13 2.0604e-13 -81.5825 10.8952 -3.55584 4.79897 -1.52472 -8.35071 0.00191073 -1.2481 0.175437 -1.14315e-09 3.2187e-09 -3.33193e-11 -1.97789e-09 5.57121e-09 -5.55275e-11 -1.14315e-09 3.2187e-09 -3.3316e-11 -7.73091 5.47488 -0.417314 -1.14315e-09 3.2187e-09 -3.33179e-11 -2.90554 0.965183 -0.102902 -1.14315e-09 3.2187e-09 -3.33218e-11 -10.2786 0.731801 -0.0259123 -1.14314e-09 3.2187e-09 -3.33243e-11 -2.22167 -0.733487 0.20892 -2.03217e-16 0.0 -3.88251e-19 3.42212 -7.71187 13.5563 -0.168163 26.0737 0.624497 -7.51639 -18.8964 -16.9179 2.03217e-16 0.0 3.88251e-19 -0.597748 -11.4258 3.46608 -0.0437577 23.0285 -0.270245 1.08569 -13.2041 2.29904
-20.4029 82.4741 81.8721 -177.884 58.2059 -174.61 -1.44748 5.03368 -1.6257 -2.32425 -1.58686 -0.709179 3.15295 15.236 1.31911 -1.51344 -26.2471 2.2763 -0.0 0.0 0.0 -0.0 0.0 0.0 1.14608e-13 1.28103e-13 -5.02394e-13 86.6683 13.5397 -0.986005 -8.23295 -3.13602 14.5268 -0.422711 18.1676 2.64339 9.08525e-10 -3.92576e-10 -1.93532e-09 1.53718e-09 -6.80964e-10 -3.35628e-09 9.08538e-10 -3.92582e-10 -1.93533e-09 7.73091 5.47488 0.417314 9.08525e-10 -3.9258e-10 -1.93532e-09 2.90554 0.965183 0.102902 9.08538e-10 -3.92579e-10 -1.93533e-09 10.2786 0.731801 0.0259123 9.08518e-10 -3.92579e-10 -1.93531e-09 2.22167 -0.733487 -0.20892 1.14485e-13 1.28092e-13 -5.02634e-13 -81.5791 10.9653 -3.56241 4.79866 -1.52511 -8.35013 0.0021017 -1.30901 0.184002 -8.28633e-10 -2.34893e-09 8.58763e-10 -1.43219e-09 -4.05947e-09 1.48443e-09 -8.28639e-10 -2.34893e-09 8.58767e-10 -7.73091 5.47488 -0.417314 -8.28632e-10 -2.34892e-09 8.58764e-10 -2.90554 0.965183 -0.102902 -8.28639e-10 -2.34892e-09 8.5876e-10 -10.2786 0.731801 -0.0259123 -8.28631e-10 -2.34892e-09 8.58757e-10 -2.22167 -0.733487 0.20892 -2.03217e-16 0.0 -3.88251e-19 3.4244 -7.69903 13.5641 -0.167991 26.0571 0.624893 -7.5359 -18.9195 -16.9479 2.03217e-16 0.0 3.88251e-19 -0.592859 -11.4304 3.48672 -0.0438312 23.0275 -0.270235 1.07585 -13.2297 2.25178
-20.3852 82.469 81.847 -177.877 58.1839 -174.581 -1.4483 5.0235 -1.63325 -2.32002 -1.5844 -0.7108 3.15389 15.2332 1.31745 -1.50743 -26.246 2.27441 -0.0 0.0 0.0 -0.0 0.0 0.0 1.75782e-13 1.30407e-13 -8.96817e-13 86.6525 13.5238 -0.976409 -8.23245 -3.13561 14.5259 -0.422915 18.1719 2.64405 2.60843e-09 -1.25307e-09 -3.27784e-09 4.45004e-09 -2.17368e-09 -5.70152e-09 2.60844e-09 -1.25308e-09 -3.27785e-09 7.73091 5.47488 0.417314 2.60843e-09 -1.25307e-09 -3.27784e-09 2.90554 0.965183 0.102902 2.60844e-09 -1.25307e-09 -3.27785e-09 10.2786 0.731801 0.0259123 2.60842e-09 -1.25307e-09 -3.27783e-09 2.22167 -0.733487 -0.20892 1.75631e-13 1.30397e-13 -8.97066e-13 -81.5755 11.0336 -3.56915 4.79822 -1.52545 -8.34933 0.00230027 -1.36934 0.192485 -6.40359e-10 -5.59448e-09 1.2356e-09 -1.10546e-09 -9.67377e-09 2.13458e-09 -6.40365e-10 -5.59448e-09 1.23561e-09 -7.73091 5.47488 -0.417314 -6.40358e-10 -5.59448e-09 1.2356e-09 -2.90554 0.965183 -0.102902 -6.40365e-10 -5.59448e-09 1.2356e-09 -10.2786 0.731801 -0.0259123 -6.40356e-10 -5.59448e-09 1.23559e-09 -2.22167 -0.733487 0.20892 -2.03217e-16 0.0 -3.88251e-19 3.42637 -7.68702 13.5719 -0.167808 26.0402 0.625271 -7.55476 -18.9426 -16.9764 2.03217e-16 0.0 3.88251e-19 -0.587729 -11.4347 3.50743 -0.0438896 23.0262 -0.270145 1.06623 -13.2559 2.20549
-20.3673 82.464 81.8224 -177.87 58.1645 -174.553 -1.44982 5.0136 -1.64031 -2.31588 -1.58256 -0.712005 3.15462 15.2304 1.31625 -1.50111 -26.2449 2.2736 -0.0 0.0 0.0 -0.0 0.0 0.0 1.7477e-13 1.77697e-13 -7.93971e-13 86.6359 13.51 -0.966705 -8.23198 -3.13533 14.5255 -0.423071 18.1751 2.64455 2.19024e-09 -1.20556e-09 -2.87576e-09 3.73473e-09 -2.09079e-09 -5.00055e-09 2.19025e-09 -1.20557e-09 -2.87577e-09 7.73091 5.47488 0.417314 2.19024e-09 -1.20556e-09 -2.87575e-09 2.90554 0.965183 0.102902 2.19025e-09 -1.20556e-09 -2.87576e-09 10.2786 0.731801 0.0259123 2.19023e-09 -1.20556e-09 -2.87575e-09 2.22167 -0.733487 -0.20892 1.7463e-13 1.77692e-13 -7.94216e-13 -81.5717 11.1 -3.57592 4.7977 -1.52574 -8.34845 0.00250558 -1.42906 0.200884 -6.6506e-10 -5.20952e-09 8.52272e-10 -1.14804e-09 -9.00863e-09 1.472e-09 -6.65067e-10 -5.20951e-09 8.52281e-10 -7.73091 5.47488 -0.417314 -6.65061e-10 -5.20952e-09 8.52271e-10 -2.90554 0.965183 -0.102902 -6.65066e-10 -5.20951e-09 8.52271e-10 -10.2786 0.731801 -0.0259123 -6.65056e-10 -5.20951e-09 8.52267e-10 -2.22167 -0.733487 0.20892 -2.03217e-16 0.0 -3.88251e-19 3.42797 -7.67599 13.5797 -0.167608 26.0233 0.625631 -7.57298 -18.9655 -17.0034 2.03217e-16 0.0 3.88251e-19 -0.582441 -11.4388 3.52801 -0.0439349 23.0249 -0.270052 1.05688 -13.2825 2.16038
-20.3499 82.4588 81.7983 -177.863 58.1473 -174.523 -1.45193 5.00384 -1.6469 -2.31184 -1.58119 -0.712861 3.15516 15.2277 1.31552 -1.49443 -26.2439 2.27387 -0.0 0.0 0.0 -0.0 0.0 0.0 1.3488e-13 2.58121e-13 -3.77784e-13 86.6184 13.498 -0.956883 -8.23173 -3.13522 14.5259 -0.423167 18.177 2.64486 4.75382e-10 -5.71254e-10 -1.42403e-09 7.98147e-10 -9.89858e-10 -2.46652e-09 4.75384e-10 -5.71254e-10 -1.42405e-09 7.73091 5.47488 0.417314 4.75381e-10 -5.71251e-10 -1.42404e-09 2.90554 0.965183 0.102902 4.75393e-10 -5.71252e-10 -1.42404e-09 10.2786 0.731801 0.0259123 4.75376e-10 -5.71252e-10 -1.42403e-09 2.22167 -0.733487 -0.20892 1.34777e-13 2.58122e-13 -3.7802e-13 -81.5679 11.1646 -3.58263 4.79708 -1.526 -8.34745 0.00271725 -1.48825 0.209208 -8.2625e-10 -2.53332e-09 5.57464e-11 -1.42721e-09 -4.38055e-09 9.5951e-11 -8.26256e-10 -2.53332e-09 5.57598e-11 -7.73091 5.47488 -0.417314 -8.26252e-10 -2.53333e-09 5.57438e-11 -2.90554 0.965183 -0.102902 -8.26254e-10 -2.53332e-09 5.5748e-11 -10.2786 0.731801 -0.0259123 -8.26242e-10 -2.53332e-09 5.57448e-11 -2.22167 -0.733487 0.20892 -2.03217e-16 0.0 -3.88251e-19 3.42934 -7.66585 13.5875 -0.167399 26.0062 0.625975 -7.5906 -18.9884 -17.0291 2.03217e-16 0.0 3.88251e-19 -0.576891 -11.4427 3.54882 -0.0439654 23.0233 -0.269936 1.04766 -13.3097 2.11581
